<svg xmlns="http://www.w3.org/2000/svg" xmlns:xlink="http://www.w3.org/1999/xlink" width="160" zoomAndPan="magnify" viewBox="0 0 120 50.999998" height="68" preserveAspectRatio="xMidYMid meet" version="1.0"><defs><g/><clipPath id="6ceb3a7d41"><path d="M 7.5 0 L 112.5 0 C 116.640625 0 120 3.359375 120 7.5 L 120 43.5 C 120 47.640625 116.640625 51 112.5 51 L 7.5 51 C 3.359375 51 0 47.640625 0 43.5 L 0 7.5 C 0 3.359375 3.359375 0 7.5 0 Z M 7.5 0 " clip-rule="nonzero"/></clipPath><clipPath id="6a145b5e5e"><path d="M 0 0 L 120 0 L 120 51 L 0 51 Z M 0 0 " clip-rule="nonzero"/></clipPath><clipPath id="a98e9b89fe"><path d="M 7.5 0 L 112.5 0 C 116.640625 0 120 3.359375 120 7.5 L 120 43.5 C 120 47.640625 116.640625 51 112.5 51 L 7.5 51 C 3.359375 51 0 47.640625 0 43.5 L 0 7.5 C 0 3.359375 3.359375 0 7.5 0 Z M 7.5 0 " clip-rule="nonzero"/></clipPath><clipPath id="e6c99c3d4d"><rect x="0" width="120" y="0" height="51"/></clipPath></defs><g clip-path="url(#6ceb3a7d41)"><g transform="matrix(1, 0, 0, 1, -0, 0)"><g clip-path="url(#e6c99c3d4d)"><g clip-path="url(#6a145b5e5e)"><g clip-path="url(#a98e9b89fe)"><path fill="#ffffff" d="M 0 0 L 119.929688 0 L 119.929688 51 L 0 51 Z M 0 0 " fill-opacity="1" fill-rule="nonzero"/></g></g></g></g></g><g fill="#00a0e9" fill-opacity="1"><g transform="translate(15.371094, 31.874997)"><g><path d="M 8.046875 -7.09375 L 8.046875 -7.0625 C 8.046875 -6.507812 8.0625 -5.988281 8.09375 -5.5 C 8.132812 -5.007812 8.1875 -4.546875 8.25 -4.109375 C 8.675781 -4.535156 9.082031 -5.023438 9.46875 -5.578125 C 9.851562 -6.128906 10.195312 -6.765625 10.5 -7.484375 C 10.03125 -7.472656 9.585938 -7.429688 9.171875 -7.359375 C 8.765625 -7.285156 8.390625 -7.195312 8.046875 -7.09375 Z M 4.640625 -2.015625 C 5.160156 -2.015625 5.753906 -2.207031 6.421875 -2.59375 C 6.328125 -3.15625 6.242188 -3.734375 6.171875 -4.328125 C 6.109375 -4.929688 6.066406 -5.539062 6.046875 -6.15625 C 5.390625 -5.707031 4.851562 -5.175781 4.4375 -4.5625 C 4.019531 -3.945312 3.8125 -3.382812 3.8125 -2.875 C 3.8125 -2.300781 4.085938 -2.015625 4.640625 -2.015625 Z M 11.25 -10.375 L 13.453125 -9.859375 C 13.398438 -9.765625 13.347656 -9.628906 13.296875 -9.453125 C 13.242188 -9.285156 13.1875 -9.117188 13.125 -8.953125 C 14.15625 -8.609375 14.984375 -8.050781 15.609375 -7.28125 C 16.242188 -6.519531 16.5625 -5.617188 16.5625 -4.578125 C 16.5625 -3.742188 16.375 -2.9375 16 -2.15625 C 15.625 -1.375 15.007812 -0.695312 14.15625 -0.125 C 13.3125 0.4375 12.15625 0.828125 10.6875 1.046875 L 9.5 -0.828125 C 10.65625 -0.960938 11.585938 -1.21875 12.296875 -1.59375 C 13.003906 -1.976562 13.519531 -2.441406 13.84375 -2.984375 C 14.175781 -3.535156 14.34375 -4.101562 14.34375 -4.6875 C 14.34375 -5.21875 14.1875 -5.707031 13.875 -6.15625 C 13.5625 -6.613281 13.109375 -6.957031 12.515625 -7.1875 C 12.015625 -5.96875 11.425781 -4.898438 10.75 -3.984375 C 10.082031 -3.078125 9.414062 -2.34375 8.75 -1.78125 C 8.8125 -1.550781 8.875 -1.328125 8.9375 -1.109375 C 9.007812 -0.890625 9.082031 -0.671875 9.15625 -0.453125 L 7.109375 0.15625 C 7.078125 0.0507812 7.039062 -0.0625 7 -0.1875 C 6.957031 -0.3125 6.914062 -0.4375 6.875 -0.5625 C 6.445312 -0.34375 6 -0.164062 5.53125 -0.03125 C 5.0625 0.09375 4.59375 0.15625 4.125 0.15625 C 3.457031 0.15625 2.882812 -0.046875 2.40625 -0.453125 C 1.9375 -0.867188 1.703125 -1.535156 1.703125 -2.453125 C 1.703125 -3.203125 1.894531 -3.953125 2.28125 -4.703125 C 2.664062 -5.453125 3.1875 -6.140625 3.84375 -6.765625 C 4.507812 -7.398438 5.253906 -7.910156 6.078125 -8.296875 C 6.109375 -8.679688 6.132812 -9.054688 6.15625 -9.421875 C 6.1875 -9.796875 6.222656 -10.164062 6.265625 -10.53125 L 5.6875 -10.53125 C 5.375 -10.53125 5.023438 -10.535156 4.640625 -10.546875 C 4.253906 -10.554688 3.875 -10.570312 3.5 -10.59375 C 3.132812 -10.613281 2.8125 -10.628906 2.53125 -10.640625 L 2.46875 -12.703125 C 2.6875 -12.679688 2.984375 -12.648438 3.359375 -12.609375 C 3.734375 -12.566406 4.132812 -12.53125 4.5625 -12.5 C 5 -12.476562 5.398438 -12.46875 5.765625 -12.46875 L 6.4375 -12.46875 L 6.546875 -13.421875 C 6.578125 -13.597656 6.597656 -13.78125 6.609375 -13.96875 C 6.617188 -14.15625 6.617188 -14.328125 6.609375 -14.484375 L 8.953125 -14.4375 C 8.890625 -14.257812 8.835938 -14.085938 8.796875 -13.921875 C 8.753906 -13.765625 8.71875 -13.617188 8.6875 -13.484375 C 8.65625 -13.335938 8.625 -13.179688 8.59375 -13.015625 C 8.5625 -12.859375 8.535156 -12.695312 8.515625 -12.53125 C 9.597656 -12.5625 10.628906 -12.632812 11.609375 -12.75 C 12.585938 -12.875 13.570312 -13.050781 14.5625 -13.28125 L 14.578125 -11.234375 C 13.703125 -11.078125 12.703125 -10.941406 11.578125 -10.828125 C 10.460938 -10.722656 9.351562 -10.640625 8.25 -10.578125 C 8.21875 -10.316406 8.191406 -10.050781 8.171875 -9.78125 C 8.148438 -9.519531 8.132812 -9.253906 8.125 -8.984375 C 8.539062 -9.078125 8.972656 -9.15625 9.421875 -9.21875 C 9.878906 -9.28125 10.332031 -9.3125 10.78125 -9.3125 L 11.09375 -9.3125 C 11.125 -9.488281 11.15625 -9.675781 11.1875 -9.875 C 11.21875 -10.082031 11.238281 -10.25 11.25 -10.375 Z M 11.25 -10.375 "/></g></g></g><g fill="#00a0e9" fill-opacity="1"><g transform="translate(33.371036, 31.874997)"><g><path d="M 13.34375 -12.546875 L 14.578125 -10.46875 C 14.316406 -10.3125 14.035156 -10.15625 13.734375 -10 C 13.441406 -9.851562 13.132812 -9.691406 12.8125 -9.515625 C 12.445312 -9.335938 11.976562 -9.109375 11.40625 -8.828125 C 10.832031 -8.546875 10.226562 -8.234375 9.59375 -7.890625 C 8.96875 -7.554688 8.382812 -7.21875 7.84375 -6.875 C 7.101562 -6.394531 6.503906 -5.890625 6.046875 -5.359375 C 5.585938 -4.835938 5.359375 -4.265625 5.359375 -3.640625 C 5.359375 -2.328125 6.597656 -1.671875 9.078125 -1.671875 C 9.679688 -1.671875 10.332031 -1.703125 11.03125 -1.765625 C 11.738281 -1.828125 12.425781 -1.90625 13.09375 -2 C 13.769531 -2.09375 14.375 -2.203125 14.90625 -2.328125 L 14.875 0.25 C 14.113281 0.375 13.257812 0.476562 12.3125 0.5625 C 11.363281 0.644531 10.304688 0.6875 9.140625 0.6875 C 7.960938 0.6875 6.898438 0.554688 5.953125 0.296875 C 5.015625 0.046875 4.273438 -0.367188 3.734375 -0.953125 C 3.191406 -1.546875 2.921875 -2.347656 2.921875 -3.359375 C 2.921875 -4.359375 3.195312 -5.234375 3.75 -5.984375 C 4.3125 -6.742188 5.019531 -7.4375 5.875 -8.0625 C 5.457031 -8.832031 5.035156 -9.671875 4.609375 -10.578125 C 4.191406 -11.492188 3.773438 -12.425781 3.359375 -13.375 L 5.609375 -14.296875 C 5.960938 -13.367188 6.332031 -12.484375 6.71875 -11.640625 C 7.113281 -10.804688 7.488281 -10.046875 7.84375 -9.359375 C 8.582031 -9.773438 9.300781 -10.171875 10 -10.546875 C 10.707031 -10.929688 11.273438 -11.238281 11.703125 -11.46875 C 12.035156 -11.664062 12.332031 -11.847656 12.59375 -12.015625 C 12.863281 -12.179688 13.113281 -12.359375 13.34375 -12.546875 Z M 13.34375 -12.546875 "/></g></g></g><g fill="#00a0e9" fill-opacity="1"><g transform="translate(50.830976, 31.874997)"><g><path d="M 13.3125 -9.359375 C 13.53125 -9.035156 13.785156 -8.632812 14.078125 -8.15625 C 14.367188 -7.6875 14.597656 -7.269531 14.765625 -6.90625 L 13.390625 -6.296875 C 13.160156 -6.785156 12.941406 -7.222656 12.734375 -7.609375 C 12.523438 -7.992188 12.273438 -8.390625 11.984375 -8.796875 Z M 15.328125 -10.1875 C 15.554688 -9.875 15.816406 -9.484375 16.109375 -9.015625 C 16.410156 -8.546875 16.65625 -8.140625 16.84375 -7.796875 L 15.5 -7.140625 C 15.257812 -7.640625 15.023438 -8.070312 14.796875 -8.4375 C 14.566406 -8.800781 14.304688 -9.179688 14.015625 -9.578125 Z M 1.3125 -12.3125 C 1.675781 -12.320312 2.015625 -12.335938 2.328125 -12.359375 C 2.648438 -12.378906 2.894531 -12.394531 3.0625 -12.40625 C 3.5625 -12.445312 4.203125 -12.5 4.984375 -12.5625 C 5.773438 -12.632812 6.660156 -12.710938 7.640625 -12.796875 C 8.628906 -12.890625 9.671875 -12.984375 10.765625 -13.078125 C 11.691406 -13.148438 12.609375 -13.210938 13.515625 -13.265625 C 14.421875 -13.328125 15.179688 -13.367188 15.796875 -13.390625 L 15.828125 -11.09375 C 15.515625 -11.09375 15.148438 -11.085938 14.734375 -11.078125 C 14.316406 -11.066406 13.898438 -11.046875 13.484375 -11.015625 C 13.078125 -10.984375 12.710938 -10.929688 12.390625 -10.859375 C 11.660156 -10.660156 11.015625 -10.300781 10.453125 -9.78125 C 9.890625 -9.257812 9.441406 -8.65625 9.109375 -7.96875 C 8.785156 -7.28125 8.625 -6.582031 8.625 -5.875 C 8.625 -5.132812 8.78125 -4.507812 9.09375 -4 C 9.40625 -3.488281 9.828125 -3.070312 10.359375 -2.75 C 10.898438 -2.425781 11.515625 -2.179688 12.203125 -2.015625 C 12.898438 -1.859375 13.625 -1.765625 14.375 -1.734375 L 13.546875 0.734375 C 12.617188 0.671875 11.71875 0.5 10.84375 0.21875 C 9.976562 -0.0625 9.203125 -0.457031 8.515625 -0.96875 C 7.828125 -1.476562 7.28125 -2.097656 6.875 -2.828125 C 6.476562 -3.554688 6.28125 -4.40625 6.28125 -5.375 C 6.28125 -6.238281 6.414062 -7.023438 6.6875 -7.734375 C 6.957031 -8.453125 7.296875 -9.078125 7.703125 -9.609375 C 8.109375 -10.148438 8.507812 -10.570312 8.90625 -10.875 C 8.519531 -10.832031 8.019531 -10.773438 7.40625 -10.703125 C 6.789062 -10.640625 6.128906 -10.5625 5.421875 -10.46875 C 4.710938 -10.382812 4.019531 -10.289062 3.34375 -10.1875 C 2.664062 -10.082031 2.066406 -9.972656 1.546875 -9.859375 Z M 1.3125 -12.3125 "/></g></g></g><g fill="#00a0e9" fill-opacity="1"><g transform="translate(68.830918, 31.874997)"><g><path d="M 10.015625 -4.515625 L 13.234375 -4.515625 L 13.234375 -5.96875 L 10.015625 -5.96875 Z M 4.75 -5.96875 L 4.75 -4.515625 L 7.859375 -4.515625 L 7.859375 -5.96875 Z M 7.859375 -9.203125 L 4.75 -9.203125 L 4.75 -7.796875 L 7.859375 -7.796875 Z M 13.234375 -9.203125 L 10.015625 -9.203125 L 10.015625 -7.796875 L 13.234375 -7.796875 Z M 17.421875 -4.515625 L 17.421875 -2.53125 L 15.375 -2.53125 L 15.375 -0.75 C 15.375 -0.21875 15.300781 0.195312 15.15625 0.5 C 15.019531 0.8125 14.757812 1.050781 14.375 1.21875 C 14.019531 1.382812 13.566406 1.484375 13.015625 1.515625 C 12.472656 1.554688 11.820312 1.578125 11.0625 1.578125 C 11.019531 1.296875 10.925781 0.957031 10.78125 0.5625 C 10.632812 0.164062 10.484375 -0.164062 10.328125 -0.4375 C 10.660156 -0.414062 10.992188 -0.398438 11.328125 -0.390625 C 11.671875 -0.390625 11.972656 -0.390625 12.234375 -0.390625 C 12.503906 -0.390625 12.691406 -0.390625 12.796875 -0.390625 C 12.960938 -0.390625 13.078125 -0.414062 13.140625 -0.46875 C 13.203125 -0.53125 13.234375 -0.640625 13.234375 -0.796875 L 13.234375 -2.53125 L 4.75 -2.53125 L 4.75 1.578125 L 2.625 1.578125 L 2.625 -2.53125 L 0.578125 -2.53125 L 0.578125 -4.515625 L 2.625 -4.515625 L 2.625 -11.125 L 7.859375 -11.125 L 7.859375 -12.3125 L 1.3125 -12.3125 L 1.3125 -14.28125 L 16.703125 -14.28125 L 16.703125 -12.3125 L 10.015625 -12.3125 L 10.015625 -11.125 L 15.375 -11.125 L 15.375 -4.515625 Z M 17.421875 -4.515625 "/></g></g></g><g fill="#00a0e9" fill-opacity="1"><g transform="translate(86.830859, 31.874997)"><g><path d="M 10.15625 -1.046875 L 17.140625 -1.046875 L 17.140625 1.0625 L 0.953125 1.0625 L 0.953125 -1.046875 L 7.90625 -1.046875 L 7.90625 -4.65625 L 3.03125 -4.65625 L 3.03125 -6.734375 L 7.90625 -6.734375 L 7.90625 -9.90625 L 4.171875 -9.90625 C 3.910156 -9.40625 3.640625 -8.929688 3.359375 -8.484375 C 3.085938 -8.035156 2.800781 -7.640625 2.5 -7.296875 C 2.351562 -7.410156 2.160156 -7.546875 1.921875 -7.703125 C 1.691406 -7.867188 1.453125 -8.03125 1.203125 -8.1875 C 0.960938 -8.34375 0.753906 -8.46875 0.578125 -8.5625 C 1.046875 -9.070312 1.484375 -9.671875 1.890625 -10.359375 C 2.296875 -11.046875 2.65625 -11.785156 2.96875 -12.578125 C 3.289062 -13.378906 3.554688 -14.191406 3.765625 -15.015625 L 5.96875 -14.53125 C 5.851562 -14.09375 5.722656 -13.664062 5.578125 -13.25 C 5.429688 -12.832031 5.28125 -12.410156 5.125 -11.984375 L 7.90625 -11.984375 L 7.90625 -15.234375 L 10.15625 -15.234375 L 10.15625 -11.984375 L 16.21875 -11.984375 L 16.21875 -9.90625 L 10.15625 -9.90625 L 10.15625 -6.734375 L 15.53125 -6.734375 L 15.53125 -4.65625 L 10.15625 -4.65625 Z M 10.15625 -1.046875 "/></g></g></g></svg>