<svg xmlns="http://www.w3.org/2000/svg" xmlns:xlink="http://www.w3.org/1999/xlink" width="500" zoomAndPan="magnify" viewBox="0 0 375 374.999991" height="500" preserveAspectRatio="xMidYMid meet" version="1.0"><defs><clipPath id="7261e6890d"><path d="M 0 37.5 L 0 337.5 C 0 358.210938 16.789062 375 37.5 375 L 337.5 375 C 358.210938 375 375 358.210938 375 337.5 L 375 37.5 C 375 16.789062 358.210938 0 337.5 0 L 37.5 0 C 16.789062 0 0 16.789062 0 37.5 Z M 0 37.5 " clip-rule="nonzero"/></clipPath><clipPath id="c6227bb992"><path d="M 92 98 L 318 98 L 318 296 L 92 296 Z M 92 98 " clip-rule="nonzero"/></clipPath><clipPath id="ba1e4bfefa"><path d="M 0 37.5 L 0 337.5 C 0 358.210938 16.789062 375 37.5 375 L 337.5 375 C 358.210938 375 375 358.210938 375 337.5 L 375 37.5 C 375 16.789062 358.210938 0 337.5 0 L 37.5 0 C 16.789062 0 0 16.789062 0 37.5 Z M 0 37.5 " clip-rule="nonzero"/></clipPath><clipPath id="9e11e57630"><path d="M 41 49 L 151 49 L 151 176 L 41 176 Z M 41 49 " clip-rule="nonzero"/></clipPath><clipPath id="e7a3572f9a"><path d="M 0 37.5 L 0 337.5 C 0 358.210938 16.789062 375 37.5 375 L 337.5 375 C 358.210938 375 375 358.210938 375 337.5 L 375 37.5 C 375 16.789062 358.210938 0 337.5 0 L 37.5 0 C 16.789062 0 0 16.789062 0 37.5 Z M 0 37.5 " clip-rule="nonzero"/></clipPath></defs><g clip-path="url(#7261e6890d)"><path fill="#ffffff" d="M 13.140625 0 L 856.890625 0 C 858.425781 0 859.957031 0.0742188 861.484375 0.226562 C 863.011719 0.375 864.527344 0.601562 866.035156 0.902344 C 867.539062 1.199219 869.027344 1.574219 870.496094 2.019531 C 871.964844 2.464844 873.410156 2.980469 874.828125 3.566406 C 876.246094 4.15625 877.632812 4.8125 878.984375 5.535156 C 880.339844 6.257812 881.65625 7.046875 882.929688 7.898438 C 884.207031 8.753906 885.4375 9.667969 886.625 10.640625 C 887.8125 11.613281 888.949219 12.644531 890.035156 13.730469 C 891.121094 14.816406 892.148438 15.949219 893.125 17.136719 C 894.097656 18.324219 895.011719 19.554688 895.863281 20.832031 C 896.714844 22.109375 897.503906 23.425781 898.230469 24.777344 C 898.953125 26.132812 899.609375 27.519531 900.195312 28.9375 C 900.78125 30.355469 901.300781 31.796875 901.746094 33.269531 C 902.191406 34.738281 902.5625 36.222656 902.863281 37.730469 C 903.164062 39.234375 903.386719 40.753906 903.539062 42.28125 C 903.6875 43.808594 903.765625 45.339844 903.765625 46.875 L 903.765625 328.125 C 903.765625 329.660156 903.6875 331.191406 903.539062 332.71875 C 903.386719 334.246094 903.164062 335.765625 902.863281 337.269531 C 902.5625 338.777344 902.191406 340.261719 901.746094 341.730469 C 901.300781 343.203125 900.78125 344.644531 900.195312 346.0625 C 899.609375 347.480469 898.953125 348.867188 898.230469 350.222656 C 897.503906 351.574219 896.714844 352.890625 895.863281 354.167969 C 895.011719 355.445312 894.097656 356.675781 893.125 357.863281 C 892.148438 359.050781 891.121094 360.183594 890.035156 361.269531 C 888.949219 362.355469 887.8125 363.386719 886.625 364.359375 C 885.4375 365.332031 884.207031 366.246094 882.929688 367.101562 C 881.65625 367.953125 880.339844 368.742188 878.984375 369.464844 C 877.632812 370.1875 876.246094 370.84375 874.828125 371.433594 C 873.410156 372.019531 871.964844 372.535156 870.496094 372.980469 C 869.027344 373.425781 867.539062 373.800781 866.035156 374.097656 C 864.527344 374.398438 863.011719 374.625 861.484375 374.773438 C 859.957031 374.925781 858.425781 375 856.890625 375 L 13.140625 375 C 11.605469 375 10.070312 374.925781 8.542969 374.773438 C 7.015625 374.625 5.5 374.398438 3.992188 374.097656 C 2.488281 373.800781 1 373.425781 -0.46875 372.980469 C -1.9375 372.535156 -3.382812 372.019531 -4.800781 371.433594 C -6.21875 370.84375 -7.605469 370.1875 -8.957031 369.464844 C -10.3125 368.742188 -11.628906 367.953125 -12.902344 367.101562 C -14.179688 366.246094 -15.410156 365.332031 -16.597656 364.359375 C -17.785156 363.386719 -18.921875 362.355469 -20.007812 361.269531 C -21.09375 360.183594 -22.121094 359.050781 -23.097656 357.863281 C -24.070312 356.675781 -24.984375 355.445312 -25.835938 354.167969 C -26.6875 352.890625 -27.476562 351.574219 -28.199219 350.222656 C -28.925781 348.867188 -29.582031 347.480469 -30.167969 346.0625 C -30.753906 344.644531 -31.273438 343.203125 -31.71875 341.730469 C -32.164062 340.261719 -32.535156 338.777344 -32.835938 337.269531 C -33.136719 335.765625 -33.359375 334.246094 -33.511719 332.71875 C -33.660156 331.191406 -33.734375 329.660156 -33.734375 328.125 L -33.734375 46.875 C -33.734375 45.339844 -33.660156 43.808594 -33.511719 42.28125 C -33.359375 40.753906 -33.136719 39.234375 -32.835938 37.730469 C -32.535156 36.222656 -32.164062 34.738281 -31.71875 33.269531 C -31.273438 31.796875 -30.753906 30.355469 -30.167969 28.9375 C -29.582031 27.519531 -28.925781 26.132812 -28.199219 24.777344 C -27.476562 23.425781 -26.6875 22.109375 -25.835938 20.832031 C -24.984375 19.554688 -24.070312 18.324219 -23.097656 17.136719 C -22.121094 15.949219 -21.09375 14.816406 -20.007812 13.730469 C -18.921875 12.644531 -17.785156 11.613281 -16.597656 10.640625 C -15.410156 9.667969 -14.179688 8.753906 -12.902344 7.898438 C -11.628906 7.046875 -10.3125 6.257812 -8.957031 5.535156 C -7.605469 4.8125 -6.21875 4.15625 -4.800781 3.566406 C -3.382812 2.980469 -1.9375 2.464844 -0.46875 2.019531 C 1 1.574219 2.488281 1.199219 3.992188 0.902344 C 5.5 0.601562 7.015625 0.375 8.542969 0.226562 C 10.070312 0.0742188 11.605469 0 13.140625 0 Z M 13.140625 0 " fill-opacity="1" fill-rule="nonzero"/></g><g clip-path="url(#c6227bb992)"><g clip-path="url(#ba1e4bfefa)"><path stroke-linecap="round" transform="matrix(9.374999, 0, 0, 9.374999, -33.736099, 0)" fill="none" stroke-linejoin="round" d="M 17.690185 12.000001 L 25.500186 12.000001 C 31.300186 12.000001 36.000186 16.030001 36.000186 21.000001 C 36.000186 25.970002 31.300186 30.000002 25.500186 30.000002 L 15.000185 30.000002 " stroke="#00a0e9" stroke-width="3" stroke-opacity="1" stroke-miterlimit="4"/></g></g><g clip-path="url(#9e11e57630)"><g clip-path="url(#e7a3572f9a)"><path fill="#00a0e9" d="M 150.578125 175.59375 L 41.265625 112.5 L 150.578125 49.40625 Z M 150.578125 175.59375 " fill-opacity="1" fill-rule="nonzero"/></g></g></svg>